<svg width="143" height="27" viewBox="0 0 143 27" fill="none" xmlns="http://www.w3.org/2000/svg">
<path d="M0 11.1884H1.87611V25.5833H5.56011V11.1884H9.99455V7.982H5.56011V3.13822H10.131V0H1.87611V7.982H0V11.1884Z" fill="#F1F2F3"/>
<path d="M12.9188 7.982V25.5833H16.6028V11.2567H21.0713V7.982H12.9188Z" fill="#F1F2F3"/>
<path d="M31.9293 26.1291C37.3189 26.1291 41.3099 22.1381 41.3099 16.7827C41.3099 11.3931 37.3189 7.43622 31.9293 7.43622C26.5398 7.43622 22.5829 11.3931 22.5829 16.7827C22.5829 22.1381 26.5057 26.1291 31.9293 26.1291ZM31.9293 22.8203C28.6546 22.8203 26.301 20.262 26.301 16.7486C26.301 13.201 28.6546 10.6768 31.9293 10.6768C35.2381 10.6768 37.5576 13.201 37.5576 16.7486C37.5576 20.262 35.2381 22.8203 31.9293 22.8203Z" fill="#F1F2F3"/>
<path d="M45.0978 7.982V25.5833H48.7818V11.1884H56.0816V25.5833H59.7656V7.982H45.0978Z" fill="#F1F2F3"/>
<path d="M65.5005 25.5833H73.4484V22.3428H69.1845V11.1884H73.96V7.982H69.1845V3.41111H65.5005V7.982H63.6244V11.1884H65.5005V25.5833Z" fill="#F1F2F3"/>
<path d="M77.2435 7.982V25.5833H80.9275V11.1884H88.2273V25.5833H91.9113V7.982H77.2435Z" fill="#F1F2F3"/>
<path d="M105.048 26.1291C110.438 26.1291 114.429 22.1381 114.429 16.7827C114.429 11.3931 110.438 7.43622 105.048 7.43622C99.6588 7.43622 95.7019 11.3931 95.7019 16.7827C95.7019 22.1381 99.6246 26.1291 105.048 26.1291ZM105.048 22.8203C101.774 22.8203 99.42 20.262 99.42 16.7486C99.42 13.201 101.774 10.6768 105.048 10.6768C108.357 10.6768 110.677 13.201 110.677 16.7486C110.677 20.262 108.357 22.8203 105.048 22.8203Z" fill="#F1F2F3"/>
<path d="M142.133 7.982H138.449L135.379 22.3428H135.243L132.002 7.982H126.476L123.202 22.3428H123.065L120.029 7.982H116.311L120.609 25.5833H125.692L129.137 11.1884H129.274L132.685 25.5833H137.904L142.133 7.982Z" fill="#F1F2F3"/>
</svg>
